<svg width="50" height="50" viewBox="0 0 50 50" fill="none" xmlns="http://www.w3.org/2000/svg">
<path d="M0 25C0 6.81818 6.81818 0 25 0C43.1818 0 50 6.81818 50 25C50 43.1818 43.1818 50 25 50C6.81818 50 0 43.1818 0 25Z" fill="url(#paint0_linear_139_1295)"/>
<path fill-rule="evenodd" clip-rule="evenodd" d="M33.9822 14.1226L12.5271 24.0169C12.3715 24.0848 12.2381 24.2021 12.1442 24.3536C12.0502 24.5051 12 24.6838 12 24.8668C12 25.0498 12.0502 25.2286 12.1442 25.3801C12.2381 25.5316 12.3715 25.6489 12.5271 25.7168L16.5188 27.0898C17.1504 27.3027 17.818 27.3565 18.4713 27.247C19.1247 27.1376 19.7468 26.8677 20.2909 26.4578L29.332 19.6364C29.3965 19.6 29.4706 19.5887 29.5418 19.6045C29.613 19.6202 29.6772 19.662 29.7237 19.723C29.7703 19.784 29.7964 19.8604 29.7977 19.9398C29.799 20.0191 29.7756 20.0966 29.7311 20.1594L22.8056 27.3949C22.6294 27.5837 22.4936 27.8126 22.4079 28.0654C22.3221 28.3181 22.2885 28.5884 22.3095 28.857C22.3304 29.1255 22.4055 29.3857 22.5292 29.619C22.6529 29.8522 22.8223 30.0527 23.0252 30.2062L30.4696 35.6982C30.7022 35.8655 30.9694 35.9669 31.247 35.9932C31.5245 36.0194 31.8037 35.9697 32.0593 35.8486C32.3148 35.7275 32.5387 35.5387 32.7106 35.2994C32.8826 35.06 32.9972 34.7777 33.0442 34.4778L35.978 15.8661C36.0232 15.585 35.9984 15.2958 35.906 15.0288C35.8137 14.7618 35.6573 14.5269 35.4532 14.3486C35.2491 14.1703 35.0049 14.0553 34.7461 14.0155C34.4873 13.9758 34.2234 14.0127 33.9822 14.1226Z" fill="white"/>
<defs>
<linearGradient id="paint0_linear_139_1295" x1="5.52147" y1="3.99999" x2="49.052" y2="8.83649" gradientUnits="userSpaceOnUse">
<stop stop-color="#007AFF"/>
<stop offset="1" stop-color="#0038FF"/>
</linearGradient>
</defs>
</svg>
