<svg width="50" height="50" viewBox="0 0 50 50" fill="none" xmlns="http://www.w3.org/2000/svg">
<path d="M0 25C0 6.81818 6.81818 0 25 0C43.1818 0 50 6.81818 50 25C50 43.1818 43.1818 50 25 50C6.81818 50 0 43.1818 0 25Z" fill="url(#paint0_linear_139_1295)"/>
<path fill-rule="evenodd" clip-rule="evenodd" d="M34.9822 14.1226L13.5271 24.0169C13.3715 24.0848 13.2381 24.2021 13.1442 24.3536C13.0502 24.5051 13 24.6838 13 24.8668C13 25.0498 13.0502 25.2286 13.1442 25.3801C13.2381 25.5316 13.3715 25.6489 13.5271 25.7168L17.5188 27.0898C18.1504 27.3027 18.818 27.3565 19.4713 27.247C20.1247 27.1376 20.7468 26.8677 21.2909 26.4578L30.332 19.6364C30.3965 19.6 30.4706 19.5887 30.5418 19.6045C30.613 19.6202 30.6772 19.662 30.7237 19.723C30.7703 19.784 30.7964 19.8604 30.7977 19.9398C30.799 20.0191 30.7756 20.0966 30.7311 20.1594L23.8056 27.3949C23.6294 27.5837 23.4936 27.8126 23.4079 28.0654C23.3221 28.3181 23.2885 28.5884 23.3095 28.857C23.3304 29.1255 23.4055 29.3857 23.5292 29.619C23.6529 29.8522 23.8223 30.0527 24.0252 30.2062L31.4696 35.6982C31.7022 35.8655 31.9694 35.9669 32.247 35.9932C32.5245 36.0194 32.8037 35.9697 33.0593 35.8486C33.3148 35.7275 33.5387 35.5387 33.7106 35.2994C33.8826 35.06 33.9972 34.7777 34.0442 34.4778L36.978 15.8661C37.0232 15.585 36.9984 15.2958 36.906 15.0288C36.8137 14.7618 36.6573 14.5269 36.4532 14.3486C36.2491 14.1703 36.0049 14.0553 35.7461 14.0155C35.4873 13.9758 35.2234 14.0127 34.9822 14.1226Z" fill="white"/>
<defs>
<linearGradient id="paint0_linear_139_1295" x1="5.52147" y1="3.99999" x2="49.052" y2="8.83649" gradientUnits="userSpaceOnUse">
<stop stop-color="#007AFF"/>
<stop offset="1" stop-color="#0038FF"/>
</linearGradient>
</defs>
</svg>
